<?xml version="1.0" standalone="no"?><!DOCTYPE svg PUBLIC "-//W3C//DTD SVG 1.1//EN" "http://www.w3.org/Graphics/SVG/1.1/DTD/svg11.dtd"><svg class="icon" width="200px" height="200.00px" viewBox="0 0 1024 1024" version="1.1" xmlns="http://www.w3.org/2000/svg"><path fill="#333333" d="M1016.96 652.032l-256-320A32 32 0 0 0 736 320h-448a31.808 31.808 0 0 0-24.96 12.032l-256 320A32 32 0 0 0 0 672V960a64 64 0 0 0 64 64h896a64 64 0 0 0 64-64v-288a31.808 31.808 0 0 0-7.04-19.968zM960 704h-224l-128 128h-192l-128-128H64v-20.8L303.36 384h417.216l239.36 299.2V704zM736 512h-448a32 32 0 0 1 0-64h448a32 32 0 0 1 0 64zM800 640h-576a32 32 0 0 1 0-64h576a32 32 0 0 1 0 64z" /></svg>