<?xml version="1.0" encoding="utf-8"?>
<!-- Generator: Adobe Illustrator 16.0.0, SVG Export Plug-In . SVG Version: 6.00 Build 0)  -->
<!DOCTYPE svg PUBLIC "-//W3C//DTD SVG 1.0//EN" "http://www.w3.org/TR/2001/REC-SVG-20010904/DTD/svg10.dtd">
<svg version="1.0" id="图层_1" xmlns="http://www.w3.org/2000/svg" xmlns:xlink="http://www.w3.org/1999/xlink" x="0px" y="0px"
	 width="128px" height="128px" viewBox="0 0 128 128" enable-background="new 0 0 128 128" xml:space="preserve">
<path d="M124.534,51.51c-5.185-15.897-15.824-28.414-29.003-36.176c0.671-3.464,0.579-7.148-0.602-10.773
	C91.32-6.512,79.723-12.659,69.025-9.17C61.538-6.732,56.568-0.202,55.439,7.279c-3.361,0.486-6.719,1.189-10.048,2.273
	C13.924,19.809-3.474,53.762,5.187,86.456c-7.434,5.011-10.977,14.667-7.971,23.888c3.608,11.073,15.208,17.224,25.906,13.735
	c1.847-0.603,3.483-1.525,5.012-2.574c15.886,12.429,37.069,17.093,57.186,10.536c5.697-1.857,10.907-4.533,15.614-7.798
	c5.197,4.063,12.119,5.596,18.707,3.446c10.697-3.486,16.446-15.289,12.835-26.362c-1.423-4.374-4.122-7.936-7.494-10.487
	C128.712,78.5,128.877,64.836,124.534,51.51z M118.642,87.541c-3.832-1.192-8.015-1.268-12.069,0.053
	c-10.699,3.487-16.447,15.291-12.837,26.365c0.576,1.768,1.417,3.356,2.362,4.854c-3.964,2.637-8.29,4.833-13.02,6.374
	c-17.479,5.696-35.855,1.825-49.855-8.69c3.644-5.221,4.905-12.115,2.732-18.778c-3.43-10.528-14.082-16.502-24.319-14.075
	C4.598,54.941,20.03,25.41,47.63,16.413c2.642-0.86,5.304-1.432,7.975-1.867c0.172,0.883,0.297,1.764,0.583,2.641
	c3.609,11.073,15.208,17.224,25.906,13.736c4.776-1.557,8.485-4.819,10.896-8.88c11.32,6.923,20.426,17.849,24.916,31.627
	C121.636,65.117,121.643,76.858,118.642,87.541z M41.159,61.773l38.745-12.628l13.068,40.099l-38.743,12.627L41.159,61.773
	L41.159,61.773z"/>
</svg>
