<?xml version="1.0" encoding="utf-8"?>
<!-- Generator: Adobe Illustrator 16.0.0, SVG Export Plug-In . SVG Version: 6.00 Build 0)  -->
<!DOCTYPE svg PUBLIC "-//W3C//DTD SVG 1.0//EN" "http://www.w3.org/TR/2001/REC-SVG-20010904/DTD/svg10.dtd">
<svg version="1.0" id="图层_1" xmlns="http://www.w3.org/2000/svg" xmlns:xlink="http://www.w3.org/1999/xlink" x="0px" y="0px"
	 width="612px" height="792px" viewBox="0 0 612 792" enable-background="new 0 0 612 792" xml:space="preserve">
<path d="M660,386.929c0-101.388-37.822-193.547-99.225-263.063c10.374-18.708,16.771-40.124,16.771-63.246
	c0-70.618-55.319-127.845-123.553-127.845c-47.735,0-88.658,28.313-109.231,69.314c-20.279-3.51-40.973-5.768-62.201-5.768
	c-200.677,0-364.79,163.056-376.299,367.812c-52.266,14.92-90.841,63.948-90.841,122.753c0,70.62,55.318,127.87,123.552,127.87
	c11.775,0,22.947-2.257,33.729-5.44c68.233,101.512,181.608,168.219,309.885,168.219c36.346,0,71.408-5.641,104.699-15.621
	c22.318,33.176,59.342,55.019,101.357,55.019c68.233,0,123.55-57.251,123.55-127.871c0-27.886-8.866-53.489-23.502-74.529
	C633.372,550.385,660,471.916,660,386.929z M558.33,583.587c-19.846-14.067-43.81-22.369-69.688-22.369
	c-68.233,0-123.553,57.251-123.553,127.87c0,11.284,1.865,22.018,4.508,32.426c-27.816,7.748-56.895,12.288-87.037,12.288
	c-111.483,0-210.152-56.852-271.115-143.794C42.267,566.76,62.5,529.395,62.5,486.887c0-67.131-50.182-121.599-113.762-126.841
	C-37.912,181.344,106.551,40.083,282.586,40.083c16.841,0,33.269,1.705,49.479,4.213c-0.68,5.416-1.601,10.732-1.601,16.325
	c0,70.619,55.32,127.87,123.555,127.87c30.455,0,57.956-11.836,79.5-30.721c52.24,61.19,84.223,141.288,84.223,229.159
	C617.719,459.93,595.694,527.64,558.33,583.587z M160.034,289.432h247.104v255.739H160.034V289.432L160.034,289.432z"/>
</svg>
