<?xml version="1.0" standalone="no"?><!DOCTYPE svg PUBLIC "-//W3C//DTD SVG 1.1//EN" "http://www.w3.org/Graphics/SVG/1.1/DTD/svg11.dtd"><svg class="icon" width="200px" height="200.00px" viewBox="0 0 1024 1024" version="1.1" xmlns="http://www.w3.org/2000/svg"><path fill="#333333" d="M799.6416 512c0-107.52-79.0528-195.584-181.6576-210.432L617.984 362.496c69.12 14.1312 121.1392 75.6736 121.1392 149.504s-52.0192 135.3728-121.1392 149.504l0 61.0304C720.5888 707.584 799.6416 619.4176 799.6416 512zM617.984 85.2992l0 62.6688C795.7504 182.4768 920.7808 328.6016 920.7808 512c0 182.3744-121.1392 323.6864-302.7968 364.032l0 62.6688C823.1936 908.3904 981.2992 729.9072 981.2992 512S823.1936 115.6096 617.984 85.2992zM466.5344 145.92 194.048 328.9088l-90.8288 0c-33.3824 0-60.5184 27.3408-60.5184 61.0304l0 244.0192c0 33.6896 27.136 61.0304 60.5184 61.0304l90.8288 0 272.4864 183.0912c33.3824 0 60.5184-27.3408 60.5184-61.0304L527.0528 206.9504C527.1552 173.2608 500.0192 145.92 466.5344 145.92zM209.1008 616.7552c0 19.3536-17.8176 34.9184-39.8336 34.9184l-39.8336 0c-22.016 0-39.8336-15.5648-39.8336-34.9184L89.6 407.1424c0-19.2512 17.8176-34.9184 39.8336-34.9184l39.8336 0c22.016 0 39.8336 15.6672 39.8336 34.9184L209.1008 616.7552zM477.0816 817.0496 254.6688 675.2256 254.6688 348.16l222.5152-151.552L477.184 817.0496z" /></svg>