<?xml version="1.0" standalone="no"?><!DOCTYPE svg PUBLIC "-//W3C//DTD SVG 1.1//EN" "http://www.w3.org/Graphics/SVG/1.1/DTD/svg11.dtd"><svg class="icon" width="200px" height="200.00px" viewBox="0 0 1024 1024" version="1.1" xmlns="http://www.w3.org/2000/svg"><path fill="#333333" d="M546.096927 887.407506l0 68.262116 170.65529 0 0 68.262116-409.572695 0 0-68.262116 170.65529 0 0-68.262116-477.834811 0 0-682.621159 191.987201 0 8.532764 68.262116L68.262116 273.048463l0 546.062796 887.407506 0L955.669622 273.048463l-38.39744 0 29.864676-68.262116 76.79488 0 0 682.621159L546.096927 887.407506zM870.341977 204.786348l-29.864676 68.262116-0.341311 0-157.514832 341.310579-375.441637-102.427305L275.301113 273.048463 275.19872 273.048463l-8.532764-68.262116L266.222252 204.786348l-27.304846-204.786348 648.490101 170.65529-15.768549 34.131058L870.341977 204.786348zM375.441637 443.703753l273.048463 68.227985 49.592427-115.021665L358.649157 313.050063 375.441637 443.703753zM331.549097 102.393174l17.782281 138.128391 376.158389 92.90474 44.916472-104.270382L331.549097 102.393174z" /></svg>