<?xml version="1.0" standalone="no"?><!DOCTYPE svg PUBLIC "-//W3C//DTD SVG 1.1//EN" "http://www.w3.org/Graphics/SVG/1.1/DTD/svg11.dtd"><svg t="1558242243241" class="icon" style="" viewBox="0 0 1024 1024" version="1.1" xmlns="http://www.w3.org/2000/svg" p-id="1831" xmlns:xlink="http://www.w3.org/1999/xlink" width="200" height="200"><defs><style type="text/css"></style></defs><path d="M947.2 15.36h-870.4C51.2 15.36 35.84 30.72 35.84 51.2v716.8c0 20.48 15.36 40.96 40.96 40.96h317.44v128H250.88c-20.48 0-40.96 15.36-40.96 40.96s15.36 40.96 40.96 40.96h522.24c20.48 0 40.96-15.36 40.96-40.96s-15.36-40.96-40.96-40.96h-143.36v-128h317.44c20.48 0 40.96-15.36 40.96-40.96V51.2c0-20.48-15.36-35.84-40.96-35.84z m-394.24 916.48H471.04v-128h81.92v128z m358.4-204.8H112.64V92.16h798.72v634.88z" p-id="1832"></path><path d="M384 542.72c20.48-10.24 25.6-30.72 25.6-56.32 0-20.48 0-35.84-10.24-46.08s-20.48-15.36-40.96-20.48c15.36-5.12 25.6-10.24 30.72-20.48 5.12-10.24 10.24-20.48 10.24-35.84 0-20.48-5.12-35.84-20.48-46.08-15.36-15.36-35.84-20.48-61.44-20.48H199.68v261.12h117.76c30.72 0 51.2-5.12 66.56-15.36zM240.64 327.68H307.2c20.48 0 30.72 5.12 40.96 10.24 10.24 5.12 10.24 15.36 10.24 30.72 0 10.24 0 20.48-10.24 30.72-10.24 5.12-20.48 5.12-40.96 5.12H240.64V327.68z m0 199.68V440.32h76.8c20.48 0 35.84 5.12 40.96 10.24 10.24 5.12 15.36 20.48 15.36 35.84 0 15.36-5.12 25.6-20.48 30.72-10.24 5.12-25.6 10.24-40.96 10.24H240.64zM455.68 296.96h40.96v261.12h-40.96zM583.68 368.64h5.12l76.8 189.44h35.84l81.92-189.44v189.44h40.96V296.96h-46.08l-92.16 209.92-92.16-209.92h-46.08v261.12h35.84z" p-id="1833"></path></svg>