<?xml version="1.0" encoding="utf-8"?>
<!-- Generator: Adobe Illustrator 16.0.0, SVG Export Plug-In . SVG Version: 6.00 Build 0)  -->
<!DOCTYPE svg PUBLIC "-//W3C//DTD SVG 1.1//EN" "http://www.w3.org/Graphics/SVG/1.1/DTD/svg11.dtd">
<svg version="1.1" id="图层_1" xmlns="http://www.w3.org/2000/svg" xmlns:xlink="http://www.w3.org/1999/xlink" x="0px" y="0px"
	 width="200px" height="200px" viewBox="0 0 200 200" enable-background="new 0 0 200 200" xml:space="preserve">
<path d="M12.403,120.154v-38.33v-0.131c0.759-6.598-2.276-9.534-9.137-8.742H1.979c-0.66,0-1.187-0.528-1.187-1.188v-1.617
	c0-0.66,0.527-1.187,1.187-1.187h2.871c2.639-0.263,5.574-0.527,8.741-0.791c7.719-0.528,13.326-0.792,16.791-0.792
	c13.821,0,23.124,2.375,27.94,7.158c0.033,0.033,0.065,0.066,0.098,0.132c2.343,2.903,3.662,5.903,3.926,9.038v0.198
	c-0.298,6.333-4.585,10.325-12.8,11.909v0.396c10.358,2.672,15.801,8.346,16.395,17.085v0.232
	c-1.385,12.206-10.192,18.54-26.39,19.1H1.187c-0.659,0-1.187-0.527-1.187-1.188v-1.583c0-0.693,0.56-1.221,1.253-1.188
	c7.918,0.196,11.645-2.605,11.15-8.412V120.154z M26.389,100v18.605c-0.528,6.629,2.54,9.697,9.17,9.17h0.067
	c9.302,0,14.084-4.651,14.382-13.92v-0.133c-0.562-9.829-5.905-14.877-15.999-15.141c-3.001,0-5.213,0.066-6.532,0.231
	C26.852,98.879,26.389,99.407,26.389,100z M26.389,72.786v20.583c0,0.661,0.527,1.189,1.187,1.189h6.796
	c8.247,0,12.502-3.564,12.799-10.721v-0.166c-0.561-7.95-5.772-12.04-15.604-12.303c-1.615,0-3.001,0.065-4.155,0.23
	C26.852,71.698,26.389,72.193,26.389,72.786z M72.405,71.763v-1.617c0-0.66,0.528-1.187,1.188-1.187h30.019
	c0.658,0,1.186,0.527,1.186,1.187v1.617c0,0.66-0.527,1.188-1.186,1.188h-0.396c-5.609,0-8.281,2.54-8.017,7.586v40.41
	c-0.264,5.344,2.408,7.885,8.017,7.586h0.396c0.658,0,1.186,0.527,1.186,1.187v1.619c0,0.659-0.527,1.186-1.186,1.186H73.594
	c-0.661,0-1.188-0.526-1.188-1.186v-1.619c0-0.659,0.528-1.187,1.188-1.187c5.079,0.264,7.587-2.144,7.587-7.191V80.57
	c0.263-5.079-2.276-7.586-7.587-7.586C72.933,72.984,72.405,72.423,72.405,71.763z M148.902,131.899l-20.913-45.424
	c-0.529-1.121-2.21-0.825-2.277,0.43l-2.078,31.6c0,0.066,0,0.101-0.032,0.166c-1.486,6.961,0.922,10.291,7.157,10.028
	c0.693-0.033,1.256,0.526,1.256,1.187v1.519c0,0.66-0.53,1.187-1.189,1.187h-20.418c-0.662,0-1.188-0.526-1.188-1.187v-1.452
	c0-0.693,0.594-1.253,1.286-1.188c5.477,0.396,7.981-3.231,7.521-10.886v-0.132l2.405-37.077v-0.1
	c0.728-4.684-1.318-7.19-6.102-7.52c-0.626-0.034-1.12-0.562-1.12-1.188v-1.65c0-0.659,0.527-1.187,1.186-1.187h19.629
	c0.46,0,0.889,0.265,1.088,0.692l18.606,39.684c0.429,0.923,1.747,0.923,2.175-0.032l17.813-39.717
	c0.196-0.429,0.628-0.693,1.09-0.693h20.021c0.661,0,1.189,0.527,1.189,1.187v1.552c0,0.659-0.562,1.22-1.222,1.187
	c-5.675-0.131-7.687,2.375-6.036,7.521c0.034,0.1,0.065,0.198,0.065,0.298l2.375,37.737v0.23c-0.954,6.696,1.582,9.995,7.621,9.929
	c0.66,0,1.188,0.528,1.188,1.188v1.552c0,0.659-0.528,1.186-1.188,1.186h-29.623c-0.66,0-1.186-0.526-1.186-1.186v-1.619
	c0-0.659,0.525-1.187,1.186-1.187h0.495c5.543,0.76,8.181-1.483,7.918-6.828c0-1.584-0.133-3.166-0.396-4.751v-0.098l-2.078-31.47
	c-0.099-1.253-1.782-1.55-2.311-0.396L152.301,131.8c-0.198,0.428-0.627,0.725-1.09,0.725h-1.253
	C149.529,132.591,149.099,132.326,148.902,131.899L148.902,131.899z"/>
</svg>
