<?xml version="1.0" standalone="no"?><!DOCTYPE svg PUBLIC "-//W3C//DTD SVG 1.1//EN" "http://www.w3.org/Graphics/SVG/1.1/DTD/svg11.dtd"><svg class="icon" width="200px" height="200.00px" viewBox="0 0 1024 1024" version="1.1" xmlns="http://www.w3.org/2000/svg"><path fill="#333333" d="M303.82 793.177h101.973v-16.185h261.381v16.185H770.98V856.2H303.82v-63.023z m235.203-282.915H411.549v43.533c16.469 16.545 36.095 26.464 58.079 31.392 20.978 4.673 44.329 4.989 69.395 2.193v-77.118z m-38.815-55.901l-20.301-75.195h35.629l54.008 76.472c-2.871-0.826-6.117-1.277-9.543-1.277h-59.793z m-233.43 0l20.301-75.195H251.45l-54.008 76.472c2.87-0.826 6.101-1.277 9.542-1.277h59.794z m-59.793 13.691H560.12c11.662 0 21.113 9.436 21.113 21.112v116.551h-0.075c0.015 10.173-7.363 19.128-17.731 20.781-36.697 5.937-71.348 6.792-102.861-0.24-28.972-6.477-54.954-19.445-77.014-40.948-22.074 21.503-48.04 34.471-77.012 40.948-31.497 7.032-66.179 6.177-102.861 0.24-10.368-1.653-17.747-10.608-17.747-20.781h-0.06V489.164c0.001-11.676 9.452-21.112 21.113-21.112z m148.573 42.21H228.083v77.118c25.051 2.796 48.417 2.481 69.395-2.193 21.984-4.929 41.61-14.848 58.079-31.392v-43.533h0.001zM668.857 127.99c-30.971 0-61.566 25.32-68.014 56.291l-38.889 186.636c-6.447 30.955 13.615 56.276 44.57 56.276H846.49c30.955 0 61.566-25.32 68.012-56.276l38.875-186.636c6.446-30.971-13.6-56.291-44.555-56.291H668.857z m-24.916 165.929h43.142l-11.39 50.685c-1.173 5.244 1.082 7.905 6.792 7.905s9.166-2.661 10.339-7.905l11.104-49.408c1.279-5.666 0.706-9.497-1.697-11.527-2.344-2.043-7.423-3.065-15.208-3.065l5.426-24.163c13.449 0 21.127-4.193 23.006-12.547l8.52-37.943c0.977-4.284-1.397-6.432-7.123-6.432-5.906 0-9.362 2.148-10.308 6.432l-8.851 39.371h-41.61l8.926-39.733c5.664-25.245 26.056-37.883 61.084-37.883 14.035 0 25.576 3.065 34.667 9.137 9.091 6.055 12.142 15.643 9.182 28.806l-6.612 29.409c-3.847 17.145-14.591 28.626-32.173 34.471 15.583 4.899 20.963 18.108 16.123 39.671l-7.137 31.783c-6.672 29.723-27.71 44.569-63.054 44.569-35.839 0-50.701-13.509-44.615-40.602l11.467-51.031z m95.167 89.785l48.131-214.166h58.636c12.742 0 23.351 3.471 31.782 10.399 8.4 6.883 10.999 17.553 7.769 31.873l-29.123 129.623c-3.005 13.36-9.964 23.728-20.963 31.166-11.001 7.394-23.412 11.105-37.283 11.105h-58.949z m69.32-38.904c-1.714 7.603-7.034 11.376-16.005 11.376l35.735-159.107c8.986 0 12.622 3.727 10.954 11.225L808.428 344.8zM106.379 181.591h463.525l-17.522 84.075H148.425v405.31h724.183V454.181c35.222-10.428 64.556-40.844 72.084-76.983l11.992-57.615v435.483H64.333V181.592h42.046z" /></svg>