<?xml version="1.0" standalone="no"?><!DOCTYPE svg PUBLIC "-//W3C//DTD SVG 1.1//EN" "http://www.w3.org/Graphics/SVG/1.1/DTD/svg11.dtd"><svg class="icon" width="200px" height="200.00px" viewBox="0 0 1024 1024" version="1.1" xmlns="http://www.w3.org/2000/svg"><path d="M725.253186 1024c-8.530127 0-17.060255-4.265064-25.590382-8.530127C691.132676 1006.939745 682.602549 994.144554 682.602549 981.349363L682.602549 128.33662c0-17.060255 8.530127-34.12051 25.590382-38.385573l213.253186-85.301274c12.795191-4.265064 29.855446-4.265064 38.385573 4.265064C972.626881 17.444964 981.157008 30.240155 981.157008 43.035346l0 853.012743c0 17.060255-8.530127 34.12051-25.590382 38.385573l-213.253186 85.301274C738.048377 1024 729.518249 1024 725.253186 1024zM767.903823 158.192066l0 759.181341 127.951911-51.180765L895.855734 107.011302 767.903823 158.192066zM298.746814 1024c-8.530127 0-17.060255-4.265064-25.590382-8.530127C264.626305 1006.939745 256.096177 994.144554 256.096177 981.349363L256.096177 128.33662c0-17.060255 8.530127-34.12051 25.590382-38.385573l213.253186-85.301274c12.795191-4.265064 29.855446-4.265064 38.385573 4.265064S554.650637 30.240155 554.650637 43.035346l0 853.012743c0 17.060255-8.530127 34.12051-25.590382 38.385573l-213.253186 85.301274C311.542005 1024 303.011878 1024 298.746814 1024zM341.397451 158.192066l0 759.181341 127.951911-51.180765L469.349363 107.011302 341.397451 158.192066zM725.253186 1024c-4.265064 0-12.795191 0-17.060255-4.265064l-213.253186-85.301274C477.87949 930.168598 469.349363 913.108343 469.349363 896.048089L469.349363 43.035346c0-12.795191 8.530127-25.590382 17.060255-34.12051s25.590382-8.530127 38.385573-4.265064l213.253186 85.301274C759.373695 94.21611 767.903823 111.276365 767.903823 128.33662l0 853.012743c0 12.795191-8.530127 25.590382-17.060255 34.12051C742.313441 1019.734936 733.783313 1024 725.253186 1024zM554.650637 866.192643l127.951911 51.180765L682.602549 158.192066l-127.951911-51.180765L554.650637 866.192643zM298.746814 1024c-4.265064 0-12.795191 0-17.060255-4.265064l-213.253186-85.301274C51.373119 930.168598 42.842992 913.108343 42.842992 896.048089L42.842992 43.035346c0-12.795191 8.530127-25.590382 17.060255-34.12051C72.698438 0.384709 89.758692-3.880355 102.553883 4.649772l213.253186 85.301274C332.867324 94.21611 341.397451 111.276365 341.397451 128.33662l0 853.012743c0 12.795191-8.530127 25.590382-17.060255 34.12051C315.807069 1019.734936 307.276942 1024 298.746814 1024zM128.144266 866.192643l127.951911 51.180765L256.096177 158.192066 128.144266 107.011302 128.144266 866.192643z" /></svg>