<?xml version="1.0" standalone="no"?><!DOCTYPE svg PUBLIC "-//W3C//DTD SVG 1.1//EN" "http://www.w3.org/Graphics/SVG/1.1/DTD/svg11.dtd"><svg class="icon" width="200px" height="200.00px" viewBox="0 0 1024 1024" version="1.1" xmlns="http://www.w3.org/2000/svg"><path fill="#333333" d="M482.176 896C287.04 896 128 738.112 128 544l0-192C128 341.504 128.192 330.816 129.28 320l706.24 0C836.608 330.816 832 341.504 832 352l0 35.52c0 2.752 64 7.36 64 14.592L896 352c0-11.968-1.408-23.68-2.624-35.392C931.2 308.608 960 276.8 960 236.8L960 83.2C960 37.248 927.552 0 881.408 0L83.648 0C37.44 0 0 37.248 0 83.2l0 153.6c0 39.808 28.544 71.488 66.048 79.68C65.152 328.256 64 339.968 64 352l0 192C64 772.8 252.352 960 482.368 960c55.808 0 109.184-11.2 158.016-31.168-12.736-17.472-25.472-35.584-37.76-54.208C564.928 888.192 524.416 896 482.176 896zM896 236.8C896 247.424 887.36 256 876.672 256L83.328 256C72.64 256 64 247.424 64 236.8L64 83.2C64 72.576 72.64 64 83.328 64l793.408 0C887.36 64 896 72.576 896 83.2L896 236.8zM385.024 608c0 52.928 43.264 96 96.512 96 12.032 0 23.424-2.496 34.112-6.464 4.736 19.136 11.968 39.296 21.248 60.16C519.488 764.032 501.056 768 481.536 768 392.704 768 320.64 696.384 320.64 608S392.704 448 481.536 448c36.544 0 69.824 12.608 96.832 33.024-14.464 16-26.88 33.344-37.12 52.16C524.736 520.128 504.192 512 481.536 512 428.288 512 385.024 555.072 385.024 608zM128.64 128l64.32 0 0 64L128.64 192 128.64 128zM798.848 553.792c-60.416 0-109.376 47.936-109.376 107.072 0 59.136 48.96 107.072 109.376 107.072s109.376-47.936 109.376-107.072C908.224 601.728 859.2 553.792 798.848 553.792zM798.848 704c-24.832 0-45.056-19.328-45.056-43.072s20.224-43.072 45.056-43.072 45.056 19.328 45.056 43.072S823.68 704 798.848 704zM798.848 448c-124.352 0-225.152 92.096-225.152 205.696S798.848 1024 798.848 1024 1024 767.36 1024 653.696 923.2 448 798.848 448zM638.016 653.696C638.016 575.552 710.144 512 798.848 512s160.832 63.552 160.832 141.696c0 46.4-76.672 165.376-160.832 270.336C714.624 819.072 638.016 700.096 638.016 653.696z" /></svg>