<?xml version="1.0" encoding="utf-8"?>
<!-- Generator: Adobe Illustrator 16.0.0, SVG Export Plug-In . SVG Version: 6.00 Build 0)  -->
<!DOCTYPE svg PUBLIC "-//W3C//DTD SVG 1.0//EN" "http://www.w3.org/TR/2001/REC-SVG-20010904/DTD/svg10.dtd">
<svg version="1.0" id="图层_1" xmlns="http://www.w3.org/2000/svg" xmlns:xlink="http://www.w3.org/1999/xlink" x="0px" y="0px"
	 width="362.83px" height="362.83px" viewBox="0 0 362.83 362.83" enable-background="new 0 0 362.83 362.83" xml:space="preserve">
<path d="M189.207,21.519c-2.877,2.36-6.814,2.381-9.701,0.06L347.08,156.19c4.791,3.849,11.801,3.083,15.648-1.71
	c3.85-4.792,3.085-11.799-1.709-15.648L193.443,4.223c-5.318-4.275-13.085-4.236-18.348,0.08L7.489,141.684
	c-4.755,3.897-5.45,10.91-1.553,15.667c3.897,4.753,10.911,5.449,15.665,1.553L189.207,21.519z M361.02,200.056L193.443,65.444
	c-5.318-4.275-13.085-4.235-18.348,0.08L7.489,202.908c-4.755,3.895-5.45,10.911-1.553,15.66c3.897,4.757,10.911,5.45,15.665,1.555
	l23.555-19.308v127.589c0,18.439,14.957,33.385,33.404,33.385h69.563h11.129v-11.133v-76.117c0-3.078,2.492-5.568,5.561-5.568
	h38.972c3.072,0,5.56,2.49,5.56,5.568v76.117v11.133h11.129h69.563c18.457,0,33.403-14.942,33.403-33.385V198.421l23.641,18.988
	c4.793,3.85,11.803,3.088,15.651-1.706C366.577,210.914,365.813,203.905,361.02,200.056z M301.178,328.407
	c0,6.142-4.978,11.117-11.142,11.117h-58.428v-64.982c0-15.371-12.456-27.834-27.824-27.834h-38.973
	c-15.368,0-27.823,12.463-27.823,27.834v64.982H78.557c-6.155,0-11.14-4.979-11.14-11.117V182.568l116.948-95.861l116.811,93.827
	v147.873H301.178z"/>
</svg>
