<?xml version="1.0" standalone="no"?><!DOCTYPE svg PUBLIC "-//W3C//DTD SVG 1.1//EN" "http://www.w3.org/Graphics/SVG/1.1/DTD/svg11.dtd"><svg class="icon" width="200px" height="200.00px" viewBox="0 0 1024 1024" version="1.1" xmlns="http://www.w3.org/2000/svg"><path fill="#333333" d="M931.9 539c-10.9-10.9-28.7-10.9-39.6 0l-75.1 75.1c-169 169-444.1 169-613.1 0l-71.3-71.3c-10.9-10.9-28.7-10.9-39.6 0-10.9 10.9-10.9 28.7 0 39.6l71.3 71.3c46.5 46.5 101 82.6 161.8 107.1 58.7 23.7 120.7 35.7 184.4 35.7s125.7-12 184.4-35.7c60.8-24.5 115.2-60.6 161.8-107.1l75.1-75.1c10.8-10.9 10.8-28.7-0.1-39.6zM132.8 484.6l71-71c169.2-169.2 444.6-169.2 613.8 0l74.6 74.6c5.5 5.5 12.6 8.2 19.8 8.2s14.3-2.7 19.8-8.2c10.9-10.9 10.9-28.7 0-39.6L857.2 374c-46.6-46.6-101.1-82.7-162-107.2-58.7-23.7-120.8-35.7-184.6-35.7s-125.8 12-184.6 35.7c-60.9 24.6-115.4 60.7-162 107.2l-71 71c-10.9 10.9-10.9 28.7 0 39.6 11.1 10.9 28.8 10.9 39.8 0z"  /><path fill="#333333" d="M322 513.2c0 104.9 85.4 190.3 190.3 190.3s190.3-85.4 190.3-190.3-85.4-190.3-190.3-190.3c-105 0-190.3 85.4-190.3 190.3z m324.6 0c0 74.1-60.3 134.3-134.3 134.3-74.1 0-134.3-60.3-134.3-134.3s60.3-134.3 134.3-134.3c74 0 134.3 60.3 134.3 134.3z"  /></svg>